<svg width="15" height="15" viewBox="0 0 15 15" fill="none" xmlns="http://www.w3.org/2000/svg">
<path d="M6.66406 13.8438V0.875H8.33594V13.8438H6.66406ZM2.78125 14.7344C1.91667 14.7344 1.25781 14.5104 0.804688 14.0625C0.356771 13.6198 0.132812 12.9714 0.132812 12.1172V2.625C0.132812 1.77083 0.356771 1.1224 0.804688 0.679688C1.25781 0.231771 1.91667 0.0078125 2.78125 0.0078125H12.2188C13.0833 0.0078125 13.7396 0.231771 14.1875 0.679688C14.6406 1.1224 14.8672 1.77083 14.8672 2.625V12.1172C14.8672 12.9714 14.6406 13.6198 14.1875 14.0625C13.7396 14.5104 13.0833 14.7344 12.2188 14.7344H2.78125ZM2.92188 13H12.0781C12.4167 13 12.6771 12.9141 12.8594 12.7422C13.0417 12.5651 13.1328 12.2969 13.1328 11.9375V2.80469C13.1328 2.44531 13.0417 2.17969 12.8594 2.00781C12.6771 1.83073 12.4167 1.74219 12.0781 1.74219H2.92188C2.57812 1.74219 2.3151 1.83073 2.13281 2.00781C1.95573 2.17969 1.86719 2.44531 1.86719 2.80469V11.9375C1.86719 12.2969 1.95573 12.5651 2.13281 12.7422C2.3151 12.9141 2.57812 13 2.92188 13Z" fill="white"/>
</svg>
