<svg width="15" height="20" viewBox="0 0 15 20" fill="none" xmlns="http://www.w3.org/2000/svg">
<path d="M3.10938 19.7578C2.24479 19.7578 1.58594 19.5339 1.13281 19.0859C0.684896 18.6432 0.460938 17.9922 0.460938 17.1328V8.30469C0.460938 7.44531 0.684896 6.79427 1.13281 6.35156C1.58594 5.90365 2.24479 5.67969 3.10938 5.67969H11.8906C12.7552 5.67969 13.4115 5.90365 13.8594 6.35156C14.3125 6.79427 14.5391 7.44531 14.5391 8.30469V17.1328C14.5391 17.987 14.3203 18.638 13.8828 19.0859C13.4505 19.5339 12.8438 19.7578 12.0625 19.7578H3.10938ZM3.25 18.0156H11.9141C12.1693 18.0156 12.3802 17.9271 12.5469 17.75C12.7188 17.5781 12.8047 17.3125 12.8047 16.9531V8.48438C12.8047 8.125 12.7109 7.85677 12.5234 7.67969C12.3411 7.5026 12.0807 7.41406 11.7422 7.41406H3.25C2.90625 7.41406 2.64323 7.5026 2.46094 7.67969C2.28385 7.85677 2.19531 8.125 2.19531 8.48438V16.9531C2.19531 17.3125 2.28385 17.5781 2.46094 17.75C2.64323 17.9271 2.90625 18.0156 3.25 18.0156ZM2.20312 4.45312C2.25521 4.06771 2.38802 3.76823 2.60156 3.55469C2.82031 3.34115 3.14844 3.23438 3.58594 3.23438H11.3125C11.7552 3.23438 12.0833 3.34115 12.2969 3.55469C12.5156 3.76823 12.651 4.06771 12.7031 4.45312H2.20312ZM3.53125 2.10938C3.5625 1.74479 3.6849 1.46615 3.89844 1.27344C4.11719 1.08073 4.42188 0.984375 4.8125 0.984375H10.0938C10.4844 0.984375 10.7865 1.08073 11 1.27344C11.2188 1.46615 11.3438 1.74479 11.375 2.10938H3.53125Z" fill="white"/>
</svg>
