<svg width="15" height="14" viewBox="0 0 15 14" fill="none" xmlns="http://www.w3.org/2000/svg">
<path d="M0.890625 7.35938C0.890625 7.08333 0.989583 6.84635 1.1875 6.64844C1.38542 6.45052 1.6224 6.35156 1.89844 6.35156H6.5V1.75781C6.5 1.48177 6.59635 1.24479 6.78906 1.04688C6.98177 0.848958 7.21875 0.75 7.5 0.75C7.77604 0.75 8.01302 0.848958 8.21094 1.04688C8.40885 1.24479 8.50781 1.48177 8.50781 1.75781V6.35156H13.1094C13.3802 6.35156 13.6146 6.45052 13.8125 6.64844C14.0104 6.84635 14.1094 7.08333 14.1094 7.35938C14.1094 7.64062 14.0104 7.88021 13.8125 8.07812C13.6146 8.27083 13.3802 8.36719 13.1094 8.36719H8.50781V12.9688C8.50781 13.2396 8.40885 13.474 8.21094 13.6719C8.01302 13.8698 7.77604 13.9688 7.5 13.9688C7.21875 13.9688 6.98177 13.8698 6.78906 13.6719C6.59635 13.474 6.5 13.2396 6.5 12.9688V8.36719H1.89844C1.6224 8.36719 1.38542 8.27083 1.1875 8.07812C0.989583 7.88021 0.890625 7.64062 0.890625 7.35938Z" fill="white"/>
</svg>
