<svg width="9" height="15" viewBox="0 0 9 15" fill="none" xmlns="http://www.w3.org/2000/svg">
<path d="M0.351562 7.35938C0.356771 7.19792 0.388021 7.04948 0.445312 6.91406C0.507812 6.77865 0.601562 6.64844 0.726562 6.52344L6.74219 0.640625C6.9401 0.442708 7.18229 0.34375 7.46875 0.34375C7.66667 0.34375 7.84375 0.390625 8 0.484375C8.16146 0.578125 8.28906 0.705729 8.38281 0.867188C8.48177 1.02344 8.53125 1.19792 8.53125 1.39062C8.53125 1.68229 8.42188 1.9375 8.20312 2.15625L2.85156 7.35938L8.20312 12.5625C8.42188 12.7865 8.53125 13.0417 8.53125 13.3281C8.53125 13.526 8.48177 13.7031 8.38281 13.8594C8.28906 14.0156 8.16146 14.1406 8 14.2344C7.84375 14.3281 7.66667 14.375 7.46875 14.375C7.18229 14.375 6.9401 14.276 6.74219 14.0781L0.726562 8.19531C0.596354 8.07031 0.5 7.9401 0.4375 7.80469C0.380208 7.66406 0.351562 7.51562 0.351562 7.35938Z" fill="white"/>
</svg>
