<svg width="17" height="22" viewBox="0 0 17 22" fill="none" xmlns="http://www.w3.org/2000/svg">
<path d="M3.42871 21.0234C2.45605 21.0234 1.71484 20.7715 1.20508 20.2676C0.701172 19.7695 0.449219 19.0371 0.449219 18.0703V9.50977C0.449219 8.54297 0.701172 7.81055 1.20508 7.3125C1.71484 6.80859 2.45605 6.55664 3.42871 6.55664H5.78418V8.5166H3.58691C3.2002 8.5166 2.9043 8.61621 2.69922 8.81543C2.5 9.00879 2.40039 9.30762 2.40039 9.71191V17.8682C2.40039 18.2725 2.5 18.5742 2.69922 18.7734C2.9043 18.9727 3.2002 19.0723 3.58691 19.0723H13.4043C13.7852 19.0723 14.0781 18.9727 14.2832 18.7734C14.4883 18.5742 14.5908 18.2725 14.5908 17.8682V9.71191C14.5908 9.30762 14.4883 9.00879 14.2832 8.81543C14.0781 8.61621 13.7852 8.5166 13.4043 8.5166H11.2422V6.55664H13.5713C14.5439 6.55664 15.2822 6.80859 15.7861 7.3125C16.2959 7.81641 16.5508 8.54883 16.5508 9.50977V18.0703C16.5508 19.0312 16.2959 19.7637 15.7861 20.2676C15.2822 20.7715 14.5439 21.0234 13.5713 21.0234H3.42871ZM8.49121 13.9307C8.24512 13.9307 8.03418 13.8428 7.8584 13.667C7.68262 13.4912 7.59473 13.2832 7.59473 13.043V4.30664L7.67383 3.01465L7.16406 3.67383L6.00391 4.91309C5.8457 5.08301 5.64648 5.16797 5.40625 5.16797C5.18945 5.16797 5.00195 5.09766 4.84375 4.95703C4.69141 4.81055 4.61523 4.62598 4.61523 4.40332C4.61523 4.19824 4.69727 4.01074 4.86133 3.84082L7.79688 1.01953C7.91992 0.902344 8.03711 0.823242 8.14844 0.782227C8.25977 0.735352 8.37402 0.711914 8.49121 0.711914C8.61426 0.711914 8.73145 0.735352 8.84277 0.782227C8.95996 0.823242 9.07715 0.902344 9.19434 1.01953L12.1299 3.84082C12.2939 4.01074 12.376 4.19824 12.376 4.40332C12.376 4.62598 12.2969 4.81055 12.1387 4.95703C11.9805 5.09766 11.7959 5.16797 11.585 5.16797C11.3506 5.16797 11.1543 5.08301 10.9961 4.91309L9.82715 3.67383L9.32617 3.01465L9.39648 4.30664V13.043C9.39648 13.2832 9.30859 13.4912 9.13281 13.667C8.96289 13.8428 8.74902 13.9307 8.49121 13.9307Z" fill="white"/>
</svg>
