<svg width="9" height="15" viewBox="0 0 9 15" fill="none" xmlns="http://www.w3.org/2000/svg">
<path d="M8.64844 7.64062C8.64323 7.80208 8.61198 7.95052 8.55469 8.08594C8.49219 8.22135 8.39844 8.35156 8.27344 8.47656L2.25781 14.3594C2.0599 14.5573 1.81771 14.6562 1.53125 14.6562C1.33333 14.6562 1.15625 14.6094 1 14.5156C0.838542 14.4219 0.710938 14.2943 0.617188 14.1328C0.518229 13.9766 0.46875 13.8021 0.46875 13.6094C0.46875 13.3177 0.578125 13.0625 0.796875 12.8438L6.14844 7.64062L0.796875 2.4375C0.578125 2.21354 0.46875 1.95833 0.46875 1.67188C0.46875 1.47396 0.518229 1.29688 0.617188 1.14062C0.710938 0.984375 0.838542 0.859375 1 0.765625C1.15625 0.671875 1.33333 0.625 1.53125 0.625C1.81771 0.625 2.0599 0.723958 2.25781 0.921875L8.27344 6.80469C8.40365 6.92969 8.5 7.0599 8.5625 7.19531C8.61979 7.33594 8.64844 7.48438 8.64844 7.64062Z" fill="#ADADAD"/>
</svg>
